<svg width="145" height="30" viewBox="0 0 145 30" fill="none" xmlns="http://www.w3.org/2000/svg">
<path d="M37.1487 22.4491V5.80438H40.4809V12.4994L39.8145 12.783C39.989 12.2158 40.2984 11.7037 40.7427 11.2468C41.2029 10.7742 41.7503 10.396 42.385 10.1124C43.0197 9.82882 43.6861 9.68702 44.3843 9.68702C45.3363 9.68702 46.1297 9.87609 46.7644 10.2542C47.4149 10.6324 47.8989 11.2074 48.2163 11.9795C48.5495 12.7357 48.7161 13.6732 48.7161 14.7918V22.4491H45.3363V15.0518C45.3363 14.4846 45.257 14.0119 45.0983 13.6338C44.9396 13.2557 44.6937 12.9799 44.3605 12.8066C44.0431 12.6176 43.6464 12.5388 43.1704 12.5703C42.7896 12.5703 42.4326 12.6333 42.0994 12.7594C41.782 12.8697 41.5043 13.0351 41.2663 13.2557C41.0442 13.4762 40.8617 13.7283 40.7189 14.0119C40.592 14.2955 40.5285 14.6028 40.5285 14.9336V22.4491H38.8624C38.4975 22.4491 38.1722 22.4491 37.8866 22.4491C37.601 22.4491 37.355 22.4491 37.1487 22.4491Z" fill="#2E2E51"/>
<path d="M55.9057 22.6854C54.6204 22.6854 53.47 22.4097 52.4545 21.8582C51.4549 21.291 50.6615 20.519 50.0744 19.5422C49.5032 18.5653 49.2176 17.4467 49.2176 16.1862C49.2176 14.9258 49.5032 13.815 50.0744 12.8539C50.6615 11.8771 51.4549 11.105 52.4545 10.5378C53.47 9.97062 54.6204 9.68702 55.9057 9.68702C57.1751 9.68702 58.3096 9.97062 59.3092 10.5378C60.3247 11.105 61.1181 11.8771 61.6893 12.8539C62.2606 13.815 62.5462 14.9258 62.5462 16.1862C62.5462 17.4467 62.2606 18.5653 61.6893 19.5422C61.1181 20.519 60.3247 21.291 59.3092 21.8582C58.3096 22.4097 57.1751 22.6854 55.9057 22.6854ZM55.9057 19.7549C56.5245 19.7549 57.0799 19.6052 57.5718 19.3058C58.0636 18.9907 58.4445 18.5653 58.7142 18.0296C58.9998 17.4782 59.1426 16.8637 59.1426 16.1862C59.1426 15.493 58.9998 14.8785 58.7142 14.3428C58.4445 13.7914 58.0636 13.366 57.5718 13.0666C57.0799 12.7515 56.5245 12.5939 55.9057 12.5939C55.271 12.5939 54.7077 12.7515 54.2158 13.0666C53.7239 13.3817 53.3352 13.8071 53.0495 14.3428C52.7639 14.8785 52.6291 15.493 52.6449 16.1862C52.6291 16.8637 52.7639 17.4782 53.0495 18.0296C53.3352 18.5653 53.7239 18.9907 54.2158 19.3058C54.7077 19.6052 55.271 19.7549 55.9057 19.7549Z" fill="#2E2E51"/>
<path d="M67.7428 22.6854C66.5686 22.6854 65.5213 22.4963 64.601 22.1182C63.6966 21.7243 62.9667 21.1886 62.4113 20.5111L64.5058 18.715C64.9977 19.2349 65.5452 19.6131 66.1481 19.8494C66.7511 20.07 67.354 20.1803 67.957 20.1803C68.195 20.1803 68.4092 20.1566 68.5996 20.1094C68.8059 20.0463 68.9804 19.9676 69.1233 19.873C69.2661 19.7627 69.3692 19.6367 69.4327 19.4949C69.512 19.3373 69.5517 19.1719 69.5517 18.9986C69.5517 18.652 69.4089 18.3762 69.1233 18.1714C68.9646 18.0926 68.7186 17.9981 68.3854 17.8878C68.0522 17.7618 67.6238 17.6279 67.1002 17.4861C66.2909 17.2812 65.6007 17.0449 65.0295 16.7771C64.4741 16.4934 64.0298 16.1783 63.6966 15.8317C63.411 15.5008 63.1888 15.1463 63.0302 14.7682C62.8874 14.3743 62.816 13.941 62.816 13.4684C62.816 12.9012 62.9429 12.3891 63.1968 11.9322C63.4507 11.4595 63.7997 11.0578 64.244 10.7269C64.7042 10.396 65.2278 10.1439 65.8149 9.97062C66.402 9.78155 67.0208 9.68702 67.6714 9.68702C68.3219 9.68702 68.9566 9.7658 69.5755 9.92335C70.1943 10.0809 70.7655 10.3094 71.2892 10.6087C71.8286 10.8923 72.2967 11.2311 72.6934 11.625L70.8845 13.6102C70.5989 13.3423 70.2736 13.0981 69.9087 12.8775C69.5596 12.657 69.1947 12.4836 68.8138 12.3576C68.433 12.2316 68.0919 12.1685 67.7904 12.1685C67.5206 12.1685 67.2747 12.1922 67.0526 12.2394C66.8463 12.2867 66.6717 12.3576 66.5289 12.4521C66.3861 12.5467 66.2751 12.6727 66.1957 12.8303C66.1322 12.9721 66.1005 13.1296 66.1005 13.3029C66.1005 13.4762 66.1402 13.6417 66.2195 13.7992C66.3147 13.9568 66.4417 14.0907 66.6003 14.201C66.7749 14.2955 67.0288 14.4058 67.362 14.5319C67.7111 14.6579 68.1791 14.7997 68.7662 14.9573C69.5279 15.1621 70.1705 15.3906 70.6941 15.6426C71.2336 15.8947 71.662 16.1862 71.9794 16.5171C72.2491 16.8007 72.4475 17.1237 72.5744 17.4861C72.7013 17.8484 72.7648 18.2502 72.7648 18.6914C72.7648 19.4634 72.5427 20.1566 72.0984 20.7711C71.67 21.3698 71.0749 21.8425 70.3133 22.1891C69.5517 22.52 68.6948 22.6854 67.7428 22.6854Z" fill="#2E2E51"/>
<path d="M75.3341 22.4491V5.93605H78.7139V22.4491H75.3341ZM72.9778 12.9484V9.94699H81.2844V12.9484H72.9778Z" fill="#2E2E51"/>
<path d="M87.8661 22.6854C86.5015 22.6854 85.3114 22.4097 84.2959 21.8582C83.2804 21.3068 82.487 20.5505 81.9158 19.5894C81.3446 18.6283 81.059 17.5254 81.059 16.2807C81.059 15.3197 81.2176 14.4373 81.535 13.6338C81.8523 12.8303 82.2966 12.137 82.8679 11.5541C83.4391 10.9553 84.1134 10.4984 84.8909 10.1833C85.6843 9.85245 86.5412 9.68702 87.4615 9.68702C88.3183 9.68702 89.1117 9.84457 89.8416 10.1597C90.5715 10.459 91.1982 10.8923 91.7219 11.4595C92.2613 12.011 92.6739 12.6648 92.9595 13.4211C93.2451 14.1774 93.3721 15.0045 93.3403 15.9026L93.3165 16.9425H83.2011L82.6536 14.8864H90.5318L90.151 15.3118V14.7918C90.1192 14.3664 89.9764 13.9804 89.7226 13.6338C89.4846 13.2872 89.1751 13.0193 88.7943 12.8303C88.4135 12.6412 87.9851 12.5467 87.5091 12.5467C86.8109 12.5467 86.2159 12.6806 85.724 12.9484C85.248 13.2163 84.883 13.6102 84.6291 14.1301C84.3753 14.65 84.2483 15.2803 84.2483 16.0208C84.2483 16.7771 84.407 17.4309 84.7243 17.9824C85.0575 18.5338 85.5177 18.9671 86.1048 19.2822C86.7078 19.5816 87.4139 19.7312 88.2231 19.7312C88.7785 19.7312 89.2862 19.6446 89.7464 19.4713C90.2065 19.298 90.6984 18.9986 91.222 18.5732L92.8405 20.8184C92.3804 21.228 91.8726 21.5746 91.3172 21.8582C90.7619 22.1261 90.1907 22.3309 89.6036 22.4727C89.0165 22.6145 88.4373 22.6854 87.8661 22.6854Z" fill="#2E2E51"/>
<path d="M93.9577 22.4491V5.80438H97.3374V22.4491H93.9577Z" fill="#2E2E51"/>
<path d="M101.413 22.4491V5.80438H104.746V12.4994L104.079 12.783C104.254 12.2158 104.563 11.7037 105.007 11.2468C105.468 10.7742 106.015 10.396 106.65 10.1124C107.284 9.82882 107.951 9.68702 108.649 9.68702C109.601 9.68702 110.394 9.87609 111.029 10.2542C111.68 10.6324 112.164 11.2074 112.481 11.9795C112.814 12.7357 112.981 13.6732 112.981 14.7918V22.4491H109.601V15.0518C109.601 14.4846 109.522 14.0119 109.363 13.6338C109.204 13.2557 108.958 12.9799 108.625 12.8066C108.308 12.6176 107.911 12.5388 107.435 12.5703C107.054 12.5703 106.697 12.6333 106.364 12.7594C106.047 12.8697 105.769 13.0351 105.531 13.2557C105.309 13.4762 105.126 13.7283 104.984 14.0119C104.857 14.2955 104.793 14.6028 104.793 14.9336V22.4491H103.127C102.762 22.4491 102.437 22.4491 102.151 22.4491C101.866 22.4491 101.62 22.4491 101.413 22.4491Z" fill="#2E2E51"/>
<path d="M120.17 22.6854C118.885 22.6854 117.735 22.4097 116.719 21.8582C115.72 21.291 114.926 20.519 114.339 19.5422C113.768 18.5653 113.482 17.4467 113.482 16.1862C113.482 14.9258 113.768 13.815 114.339 12.8539C114.926 11.8771 115.72 11.105 116.719 10.5378C117.735 9.97062 118.885 9.68702 120.17 9.68702C121.44 9.68702 122.574 9.97062 123.574 10.5378C124.589 11.105 125.383 11.8771 125.954 12.8539C126.525 13.815 126.811 14.9258 126.811 16.1862C126.811 17.4467 126.525 18.5653 125.954 19.5422C125.383 20.519 124.589 21.291 123.574 21.8582C122.574 22.4097 121.44 22.6854 120.17 22.6854ZM120.17 19.7549C120.789 19.7549 121.345 19.6052 121.836 19.3058C122.328 18.9907 122.709 18.5653 122.979 18.0296C123.264 17.4782 123.407 16.8637 123.407 16.1862C123.407 15.493 123.264 14.8785 122.979 14.3428C122.709 13.7914 122.328 13.366 121.836 13.0666C121.345 12.7515 120.789 12.5939 120.17 12.5939C119.536 12.5939 118.972 12.7515 118.48 13.0666C117.989 13.3817 117.6 13.8071 117.314 14.3428C117.029 14.8785 116.894 15.493 116.91 16.1862C116.894 16.8637 117.029 17.4782 117.314 18.0296C117.6 18.5653 117.989 18.9907 118.48 19.3058C118.972 19.6052 119.536 19.7549 120.17 19.7549Z" fill="#2E2E51"/>
<path d="M127.149 26.8044V9.94699H130.41L130.505 12.7594L129.886 12.5467C129.997 12.0425 130.267 11.5777 130.696 11.1523C131.14 10.7269 131.687 10.3803 132.338 10.1124C132.988 9.84457 133.671 9.71065 134.385 9.71065C135.48 9.71065 136.447 9.99425 137.288 10.5615C138.145 11.1129 138.82 11.8771 139.311 12.8539C139.819 13.815 140.073 14.9258 140.073 16.1862C140.073 17.4309 139.827 18.5417 139.335 19.5185C138.843 20.4954 138.169 21.2674 137.312 21.8346C136.455 22.3861 135.48 22.6618 134.385 22.6618C133.655 22.6618 132.957 22.5279 132.29 22.26C131.64 21.9764 131.084 21.6062 130.624 21.1492C130.164 20.6923 129.878 20.2039 129.767 19.684L130.553 19.3531V26.8044H127.149ZM133.623 19.7785C134.242 19.7785 134.789 19.6288 135.265 19.3295C135.741 19.0301 136.114 18.6126 136.384 18.0769C136.654 17.5254 136.789 16.8952 136.789 16.1862C136.789 15.4772 136.654 14.8549 136.384 14.3192C136.114 13.7835 135.741 13.366 135.265 13.0666C134.805 12.7672 134.258 12.6176 133.623 12.6176C132.988 12.6176 132.433 12.7672 131.957 13.0666C131.481 13.3502 131.108 13.7677 130.838 14.3192C130.569 14.8549 130.434 15.4772 130.434 16.1862C130.434 16.8952 130.569 17.5254 130.838 18.0769C131.108 18.6126 131.481 19.0301 131.957 19.3295C132.433 19.6288 132.988 19.7785 133.623 19.7785Z" fill="#2E2E51"/>
<path d="M142.373 22.68V20.28H142.944L143.858 21.8229H143.495L144.403 20.28H145V22.68H144.371L144.384 20.7811L144.728 20.7086L143.884 22.1789H143.456L142.568 20.6559L142.983 20.735L142.996 22.68H142.373ZM140.81 22.68V20.4383H141.413V22.68H140.81ZM140.207 20.8471V20.28H142.042V20.8471H140.207Z" fill="#2E2E51"/>
<path d="M29.2778 3.38852C28.686 2.22094 27.7397 1.27144 26.5748 0.676672C25.2493 5.90029e-06 23.5124 0 20.0422 0H9.91825C6.44626 0 4.71113 5.90029e-06 3.38386 0.676672C2.21744 1.27105 1.2693 2.2205 0.67574 3.38852C5.89217e-06 4.71589 0 6.45515 0 9.9302V20.0681C0 23.5449 5.89217e-06 25.2824 0.67574 26.6115C1.26979 27.7791 2.2178 28.7285 3.38386 29.3233C4.71113 30 6.44626 30 9.91825 30H20.0422C23.5124 30 25.2493 30 26.5748 29.3233C27.7412 28.729 28.6894 27.7795 29.2829 26.6115C29.9587 25.2824 29.9587 23.5449 29.9587 20.0681V9.93193C29.9535 6.45515 29.9535 4.71589 29.2778 3.38852ZM23.3586 21.9562L23.2895 22.2936H19.738L19.84 21.7883C20.023 20.7263 20.0341 19.6418 19.8728 18.5763C19.5583 16.8128 18.6872 15.9925 17.1336 15.9925C16.4267 15.9925 15.7406 16.2365 15.0321 16.7418C14.2683 17.3178 13.598 18.0084 13.0446 18.7892C12.2985 19.8013 11.6613 20.8895 11.1436 22.0358L11.0347 22.2919H7.54541L7.6612 21.7727C7.6612 21.7398 8.38532 18.533 8.39742 15.4231C8.40606 13.7098 8.20559 12.3755 7.80118 11.4601C7.24988 10.2054 6.48255 10.2054 6.19394 10.2054H5.64437L6.59316 6.66109H6.91634C8.29027 6.66109 10.1481 7.16643 11.2006 9.57543C11.7657 10.8699 12.0474 12.6213 12.0336 14.7794C12.0336 14.878 12.0336 14.9784 12.0336 15.0805C12.4227 14.7067 12.8367 14.3597 13.2727 14.0421C14.7555 12.9743 16.2988 12.4344 17.8629 12.4344C19.6049 12.4344 20.9927 12.9864 21.9899 14.075C22.7451 14.9005 23.2463 16.015 23.4813 17.3891C23.8321 19.5091 23.407 21.7121 23.3586 21.9562Z" fill="#2E2E51"/>
</svg>
