<svg width="242" height="158" viewBox="0 0 242 158" fill="none" xmlns="http://www.w3.org/2000/svg">
<path d="M0 129.252V92H7.415V106.984L5.932 107.619C6.3204 106.349 7.00894 105.203 7.99761 104.181C9.02158 103.123 10.2398 102.277 11.6521 101.642C13.0645 101.007 14.5475 100.69 16.1011 100.69C18.2197 100.69 19.9852 101.113 21.3976 101.959C22.8453 102.805 23.9222 104.093 24.6284 105.82C25.3699 107.513 25.7406 109.611 25.7406 112.115V129.252H18.2197V112.697C18.2197 111.427 18.0432 110.369 17.6901 109.523C17.337 108.677 16.7897 108.06 16.0482 107.672C15.342 107.249 14.4592 107.072 13.4 107.143C12.5525 107.143 11.7581 107.284 11.0166 107.566C10.3104 107.813 9.69246 108.183 9.16282 108.677C8.66849 109.17 8.26243 109.735 7.94464 110.369C7.66217 111.004 7.52093 111.692 7.52093 112.432V129.252H3.81343C3.00131 129.252 2.27746 129.252 1.64189 129.252C1.00632 129.252 0.459024 129.252 0 129.252Z" fill="#2E2E51"/>
<path d="M41.7396 129.781C38.8795 129.781 36.3196 129.164 34.0597 127.93C31.8352 126.661 30.0698 124.933 28.7633 122.746C27.4922 120.56 26.8566 118.057 26.8566 115.236C26.8566 112.415 27.4922 109.929 28.7633 107.777C30.0698 105.591 31.8352 103.863 34.0597 102.594C36.3196 101.324 38.8795 100.69 41.7396 100.69C44.5643 100.69 47.089 101.324 49.3135 102.594C51.5733 103.863 53.3387 105.591 54.6099 107.777C55.881 109.929 56.5166 112.415 56.5166 115.236C56.5166 118.057 55.881 120.56 54.6099 122.746C53.3387 124.933 51.5733 126.661 49.3135 127.93C47.089 129.164 44.5643 129.781 41.7396 129.781ZM41.7396 123.223C43.1166 123.223 44.3525 122.888 45.4471 122.218C46.5417 121.512 47.3891 120.56 47.9893 119.361C48.6249 118.127 48.9427 116.752 48.9427 115.236C48.9427 113.684 48.6249 112.309 47.9893 111.11C47.3891 109.876 46.5417 108.924 45.4471 108.254C44.3525 107.548 43.1166 107.196 41.7396 107.196C40.3272 107.196 39.0737 107.548 37.9791 108.254C36.8845 108.959 36.0194 109.911 35.3839 111.11C34.7483 112.309 34.4482 113.684 34.4835 115.236C34.4482 116.752 34.7483 118.127 35.3839 119.361C36.0194 120.56 36.8845 121.512 37.9791 122.218C39.0737 122.888 40.3272 123.223 41.7396 123.223Z" fill="#2E2E51"/>
<path d="M68.0805 129.781C65.4676 129.781 63.1372 129.358 61.0893 128.512C59.0766 127.63 57.4524 126.431 56.2165 124.915L60.8774 120.895C61.972 122.059 63.1902 122.905 64.5319 123.434C65.8737 123.928 67.2155 124.175 68.5572 124.175C69.0869 124.175 69.5635 124.122 69.9873 124.016C70.4463 123.875 70.8347 123.699 71.1525 123.487C71.4703 123.24 71.6998 122.958 71.841 122.641C72.0175 122.288 72.1058 121.918 72.1058 121.53C72.1058 120.754 71.788 120.137 71.1525 119.679C70.7994 119.502 70.2521 119.291 69.5106 119.044C68.7691 118.762 67.8157 118.462 66.6505 118.145C64.8497 117.686 63.3138 117.157 62.0426 116.558C60.8068 115.923 59.8181 115.218 59.0766 114.442C58.441 113.702 57.9467 112.908 57.5936 112.062C57.2758 111.18 57.1169 110.211 57.1169 109.153C57.1169 107.883 57.3994 106.737 57.9644 105.715C58.5293 104.657 59.3061 103.758 60.2948 103.017C61.3188 102.277 62.484 101.712 63.7904 101.324C65.0969 100.901 66.474 100.69 67.9216 100.69C69.3693 100.69 70.7817 100.866 72.1588 101.219C73.5359 101.571 74.807 102.083 75.9722 102.753C77.1727 103.387 78.2144 104.145 79.0971 105.027L75.0718 109.47C74.4362 108.871 73.7124 108.324 72.9003 107.83C72.1235 107.337 71.3114 106.949 70.4639 106.667C69.6165 106.385 68.8574 106.244 68.1865 106.244C67.5862 106.244 67.0389 106.296 66.5446 106.402C66.0856 106.508 65.6971 106.667 65.3794 106.878C65.0616 107.09 64.8144 107.372 64.6379 107.725C64.4966 108.042 64.426 108.395 64.426 108.782C64.426 109.17 64.5143 109.541 64.6908 109.893C64.9027 110.246 65.1852 110.546 65.5383 110.792C65.9267 111.004 66.4916 111.251 67.2331 111.533C68.0099 111.815 69.0516 112.132 70.358 112.485C72.0529 112.943 73.4829 113.455 74.6481 114.019C75.8486 114.583 76.802 115.236 77.5082 115.976C78.1084 116.611 78.5498 117.334 78.8323 118.145C79.1148 118.956 79.256 119.855 79.256 120.842C79.256 122.57 78.7617 124.122 77.773 125.497C76.8196 126.837 75.4955 127.895 73.8007 128.671C72.1058 129.411 70.1991 129.781 68.0805 129.781Z" fill="#2E2E51"/>
<path d="M84.9734 129.252V92.2947H92.4943V129.252H84.9734ZM79.73 107.989V101.272H98.2145V107.989H79.73Z" fill="#2E2E51"/>
<path d="M112.861 129.781C109.824 129.781 107.176 129.164 104.916 127.93C102.656 126.696 100.891 125.003 99.6196 122.852C98.3484 120.701 97.7129 118.233 97.7129 115.447C97.7129 113.296 98.066 111.321 98.7722 109.523C99.4783 107.725 100.467 106.173 101.738 104.868C103.009 103.528 104.51 102.506 106.24 101.8C108.006 101.06 109.912 100.69 111.96 100.69C113.867 100.69 115.632 101.042 117.257 101.748C118.881 102.418 120.276 103.387 121.441 104.657C122.641 105.891 123.559 107.354 124.195 109.047C124.831 110.74 125.113 112.591 125.042 114.601L124.989 116.928H102.48L101.261 112.326H118.793L117.945 113.278V112.115C117.875 111.163 117.557 110.299 116.992 109.523C116.462 108.747 115.774 108.148 114.926 107.725C114.079 107.301 113.125 107.09 112.066 107.09C110.513 107.09 109.188 107.39 108.094 107.989C107.035 108.589 106.222 109.47 105.658 110.634C105.093 111.797 104.81 113.208 104.81 114.865C104.81 116.558 105.163 118.021 105.869 119.255C106.611 120.49 107.635 121.459 108.941 122.165C110.283 122.835 111.854 123.17 113.655 123.17C114.891 123.17 116.021 122.976 117.045 122.588C118.069 122.2 119.163 121.53 120.329 120.578L123.93 125.603C122.906 126.52 121.776 127.295 120.54 127.93C119.305 128.53 118.033 128.988 116.727 129.305C115.421 129.623 114.132 129.781 112.861 129.781Z" fill="#2E2E51"/>
<path d="M126.416 129.252V92H133.937V129.252H126.416Z" fill="#2E2E51"/>
<path d="M143.007 129.252V92H150.422V106.984L148.939 107.619C149.328 106.349 150.016 105.203 151.005 104.181C152.029 103.123 153.247 102.277 154.66 101.642C156.072 101.007 157.555 100.69 159.108 100.69C161.227 100.69 162.993 101.113 164.405 101.959C165.853 102.805 166.93 104.093 167.636 105.82C168.377 107.513 168.748 109.611 168.748 112.115V129.252H161.227V112.697C161.227 111.427 161.051 110.369 160.697 109.523C160.344 108.677 159.797 108.06 159.056 107.672C158.349 107.249 157.467 107.072 156.407 107.143C155.56 107.143 154.765 107.284 154.024 107.566C153.318 107.813 152.7 108.183 152.17 108.677C151.676 109.17 151.27 109.735 150.952 110.369C150.67 111.004 150.528 111.692 150.528 112.432V129.252H146.821C146.009 129.252 145.285 129.252 144.649 129.252C144.014 129.252 143.466 129.252 143.007 129.252Z" fill="#2E2E51"/>
<path d="M184.747 129.781C181.887 129.781 179.327 129.164 177.067 127.93C174.843 126.661 173.077 124.933 171.771 122.746C170.5 120.56 169.864 118.057 169.864 115.236C169.864 112.415 170.5 109.929 171.771 107.777C173.077 105.591 174.843 103.863 177.067 102.594C179.327 101.324 181.887 100.69 184.747 100.69C187.572 100.69 190.096 101.324 192.321 102.594C194.581 103.863 196.346 105.591 197.617 107.777C198.888 109.929 199.524 112.415 199.524 115.236C199.524 118.057 198.888 120.56 197.617 122.746C196.346 124.933 194.581 126.661 192.321 127.93C190.096 129.164 187.572 129.781 184.747 129.781ZM184.747 123.223C186.124 123.223 187.36 122.888 188.454 122.218C189.549 121.512 190.396 120.56 190.997 119.361C191.632 118.127 191.95 116.752 191.95 115.236C191.95 113.684 191.632 112.309 190.997 111.11C190.396 109.876 189.549 108.924 188.454 108.254C187.36 107.548 186.124 107.196 184.747 107.196C183.335 107.196 182.081 107.548 180.986 108.254C179.892 108.959 179.027 109.911 178.391 111.11C177.756 112.309 177.456 113.684 177.491 115.236C177.456 116.752 177.756 118.127 178.391 119.361C179.027 120.56 179.892 121.512 180.986 122.218C182.081 122.888 183.335 123.223 184.747 123.223Z" fill="#2E2E51"/>
<path d="M200.277 139V101.272H207.533L207.745 107.566L206.368 107.09C206.615 105.961 207.215 104.921 208.168 103.969C209.157 103.017 210.375 102.241 211.823 101.642C213.271 101.042 214.789 100.743 216.378 100.743C218.814 100.743 220.968 101.377 222.84 102.647C224.746 103.881 226.247 105.591 227.341 107.777C228.471 109.929 229.036 112.415 229.036 115.236C229.036 118.021 228.489 120.507 227.394 122.694C226.3 124.88 224.799 126.608 222.892 127.877C220.986 129.111 218.814 129.728 216.378 129.728C214.754 129.728 213.2 129.429 211.717 128.829C210.269 128.195 209.034 127.366 208.01 126.343C206.986 125.321 206.35 124.227 206.103 123.064L207.851 122.323V139H200.277ZM214.683 123.275C216.06 123.275 217.278 122.94 218.338 122.27C219.397 121.6 220.227 120.666 220.827 119.467C221.427 118.233 221.727 116.822 221.727 115.236C221.727 113.649 221.427 112.256 220.827 111.057C220.227 109.858 219.397 108.924 218.338 108.254C217.314 107.584 216.095 107.249 214.683 107.249C213.271 107.249 212.035 107.584 210.976 108.254C209.916 108.888 209.086 109.823 208.486 111.057C207.886 112.256 207.586 113.649 207.586 115.236C207.586 116.822 207.886 118.233 208.486 119.467C209.086 120.666 209.916 121.6 210.976 122.27C212.035 122.94 213.271 123.275 214.683 123.275Z" fill="#2E2E51"/>
<path d="M234.876 130V124H236.424L238.904 127.857H237.919L240.382 124H242V130H240.294L240.329 125.253L241.261 125.071L238.974 128.747H237.813L235.403 124.94L236.529 125.137L236.564 130H234.876ZM230.636 130V124.396H232.272V130H230.636ZM229 125.418V124H233.978V125.418H229Z" fill="#2E2E51"/>
<path d="M78 23.1718C78 15.0629 78 11.0044 79.579 7.90701C80.9674 5.18119 83.1843 2.96572 85.911 1.57899C89.0084 1.38521e-05 93.0629 0 101.176 0H124.832C132.945 0 137 1.38521e-05 140.097 1.57899C142.82 2.96604 145.034 5.17988 146.421 7.90297C148 11.0003 148 15.0588 148 23.1678V46.8242C148 54.9371 148 58.9916 146.421 62.093C145.031 64.818 142.815 67.0332 140.089 68.421C136.992 70 132.937 70 124.824 70H101.192C93.079 70 89.0246 70 85.9272 68.421C83.2013 67.0332 80.9847 64.818 79.5951 62.093C78.0161 58.9916 78.0161 54.9371 78.0161 46.8242L78 23.1718Z" fill="url(#paint0_linear_6706_27990)"/>
<g filter="url(#filter0_d_6706_27990)">
<path d="M132.864 40.6011C132.319 37.3947 131.148 34.794 129.383 32.8677C127.053 30.3276 123.807 29.0394 119.736 29.0394C116.101 29.0394 112.467 30.2994 109.014 32.791C107.993 33.5311 107.024 34.3407 106.115 35.214C106.115 34.9757 106.115 34.7415 106.115 34.5113C106.143 29.4756 105.489 25.3888 104.164 22.3681C101.705 16.7468 97.3637 15.5676 94.1572 15.5676H93.4021L91.1851 23.8381H92.4652C93.1396 23.8381 94.9326 23.8381 96.2249 26.7659C97.1658 28.9021 97.6342 32.0156 97.6181 36.0136C97.5858 43.2825 95.9139 50.7534 95.8937 50.8301L95.6232 52.0416H103.781L104.035 51.444C105.244 48.7687 106.733 46.2292 108.477 43.8681C109.77 42.0451 111.338 40.4335 113.125 39.0908C114.777 37.9116 116.384 37.3422 118.032 37.3422C121.666 37.3422 123.685 39.2563 124.432 43.3714C124.809 45.8577 124.783 48.3884 124.356 50.8665L124.121 52.0457H132.42L132.578 51.2582C132.711 50.6605 133.7 45.5197 132.864 40.6011Z" fill="white"/>
</g>
<path d="M48.5039 157V145.8H50.5839V157H48.5039ZM49.4639 152.408V150.52H55.2399V152.408H49.4639ZM49.4639 147.72V145.8H55.9279V147.72H49.4639Z" fill="#9393AA"/>
<path d="M57.1057 157V148.568H59.0417L59.0737 151.256L58.8017 150.648C58.919 150.221 59.1217 149.837 59.4097 149.496C59.6977 149.155 60.0283 148.888 60.4017 148.696C60.7857 148.493 61.1857 148.392 61.6017 148.392C61.783 148.392 61.9537 148.408 62.1137 148.44C62.2843 148.472 62.423 148.509 62.5297 148.552L62.0017 150.712C61.8843 150.648 61.7403 150.595 61.5697 150.552C61.399 150.509 61.2283 150.488 61.0577 150.488C60.791 150.488 60.535 150.541 60.2897 150.648C60.055 150.744 59.847 150.883 59.6657 151.064C59.4843 151.245 59.3403 151.459 59.2337 151.704C59.1377 151.939 59.0897 152.205 59.0897 152.504V157H57.1057Z" fill="#9393AA"/>
<path d="M66.7927 157.16C65.9073 157.16 65.1233 156.973 64.4407 156.6C63.7687 156.227 63.2407 155.72 62.8567 155.08C62.4833 154.429 62.2967 153.688 62.2967 152.856C62.2967 152.195 62.4033 151.592 62.6167 151.048C62.83 150.504 63.1233 150.035 63.4967 149.64C63.8807 149.235 64.334 148.925 64.8567 148.712C65.39 148.488 65.9713 148.376 66.6007 148.376C67.1553 148.376 67.6727 148.483 68.1527 148.696C68.6327 148.909 69.0487 149.203 69.4007 149.576C69.7527 149.939 70.0193 150.376 70.2007 150.888C70.3927 151.389 70.4833 151.939 70.4727 152.536L70.4567 153.224H63.6247L63.2567 151.88H68.8087L68.5527 152.152V151.8C68.5207 151.469 68.414 151.181 68.2327 150.936C68.0513 150.68 67.8167 150.483 67.5287 150.344C67.2513 150.195 66.942 150.12 66.6007 150.12C66.078 150.12 65.6353 150.221 65.2727 150.424C64.9207 150.627 64.654 150.92 64.4727 151.304C64.2913 151.677 64.2007 152.147 64.2007 152.712C64.2007 153.256 64.3127 153.731 64.5367 154.136C64.7713 154.541 65.0967 154.856 65.5127 155.08C65.9393 155.293 66.4353 155.4 67.0007 155.4C67.3953 155.4 67.758 155.336 68.0887 155.208C68.4193 155.08 68.7767 154.851 69.1607 154.52L70.1367 155.88C69.8487 156.147 69.518 156.376 69.1447 156.568C68.782 156.749 68.398 156.893 67.9927 157C67.5873 157.107 67.1873 157.16 66.7927 157.16Z" fill="#9393AA"/>
<path d="M75.5277 157.16C74.6423 157.16 73.8583 156.973 73.1757 156.6C72.5037 156.227 71.9757 155.72 71.5917 155.08C71.2183 154.429 71.0317 153.688 71.0317 152.856C71.0317 152.195 71.1383 151.592 71.3517 151.048C71.565 150.504 71.8583 150.035 72.2317 149.64C72.6157 149.235 73.069 148.925 73.5917 148.712C74.125 148.488 74.7063 148.376 75.3357 148.376C75.8903 148.376 76.4077 148.483 76.8877 148.696C77.3677 148.909 77.7837 149.203 78.1357 149.576C78.4877 149.939 78.7543 150.376 78.9357 150.888C79.1277 151.389 79.2183 151.939 79.2077 152.536L79.1917 153.224H72.3597L71.9917 151.88H77.5437L77.2877 152.152V151.8C77.2557 151.469 77.149 151.181 76.9677 150.936C76.7863 150.68 76.5517 150.483 76.2637 150.344C75.9863 150.195 75.677 150.12 75.3357 150.12C74.813 150.12 74.3703 150.221 74.0077 150.424C73.6557 150.627 73.389 150.92 73.2077 151.304C73.0263 151.677 72.9357 152.147 72.9357 152.712C72.9357 153.256 73.0477 153.731 73.2717 154.136C73.5063 154.541 73.8317 154.856 74.2477 155.08C74.6743 155.293 75.1703 155.4 75.7357 155.4C76.1303 155.4 76.493 155.336 76.8237 155.208C77.1543 155.08 77.5117 154.851 77.8957 154.52L78.8717 155.88C78.5837 156.147 78.253 156.376 77.8797 156.568C77.517 156.749 77.133 156.893 76.7277 157C76.3223 157.107 75.9223 157.16 75.5277 157.16Z" fill="#9393AA"/>
<path d="M83.7027 157.16C82.956 157.16 82.284 156.973 81.6867 156.6C81.1 156.216 80.6307 155.699 80.2787 155.048C79.9373 154.387 79.7667 153.629 79.7667 152.776C79.7667 151.933 79.9373 151.181 80.2787 150.52C80.62 149.859 81.084 149.341 81.6707 148.968C82.268 148.584 82.94 148.392 83.6867 148.392C84.092 148.392 84.4813 148.456 84.8547 148.584C85.2387 148.712 85.58 148.888 85.8787 149.112C86.1773 149.325 86.412 149.565 86.5827 149.832C86.764 150.099 86.8653 150.376 86.8867 150.664L86.3587 150.728V145.16H88.3267V157H86.4227L86.3747 155.016L86.7587 155.048C86.748 155.315 86.652 155.571 86.4707 155.816C86.3 156.061 86.076 156.285 85.7987 156.488C85.5213 156.691 85.196 156.856 84.8227 156.984C84.46 157.101 84.0867 157.16 83.7027 157.16ZM84.0867 155.496C84.5453 155.496 84.9507 155.379 85.3027 155.144C85.6547 154.909 85.9267 154.589 86.1187 154.184C86.3213 153.779 86.4227 153.309 86.4227 152.776C86.4227 152.253 86.3213 151.789 86.1187 151.384C85.9267 150.968 85.6547 150.648 85.3027 150.424C84.9507 150.189 84.5453 150.072 84.0867 150.072C83.628 150.072 83.2227 150.189 82.8707 150.424C82.5187 150.648 82.2413 150.968 82.0387 151.384C81.8467 151.789 81.7507 152.253 81.7507 152.776C81.7507 153.309 81.8467 153.779 82.0387 154.184C82.2413 154.589 82.5187 154.909 82.8707 155.144C83.2227 155.379 83.628 155.496 84.0867 155.496Z" fill="#9393AA"/>
<path d="M93.7767 157.16C92.934 157.16 92.182 156.973 91.5207 156.6C90.8593 156.216 90.3367 155.693 89.9527 155.032C89.5687 154.371 89.3767 153.619 89.3767 152.776C89.3767 151.933 89.5687 151.181 89.9527 150.52C90.3367 149.859 90.8593 149.341 91.5207 148.968C92.182 148.584 92.934 148.392 93.7767 148.392C94.6087 148.392 95.3553 148.584 96.0167 148.968C96.678 149.341 97.1953 149.859 97.5687 150.52C97.9527 151.181 98.1447 151.933 98.1447 152.776C98.1447 153.619 97.9527 154.371 97.5687 155.032C97.1953 155.693 96.678 156.216 96.0167 156.6C95.3553 156.973 94.6087 157.16 93.7767 157.16ZM93.7767 155.416C94.2353 155.416 94.6407 155.299 94.9927 155.064C95.3553 154.829 95.638 154.515 95.8407 154.12C96.054 153.725 96.1553 153.277 96.1447 152.776C96.1553 152.264 96.054 151.811 95.8407 151.416C95.638 151.021 95.3553 150.712 94.9927 150.488C94.6407 150.253 94.2353 150.136 93.7767 150.136C93.318 150.136 92.902 150.253 92.5287 150.488C92.166 150.712 91.8833 151.027 91.6807 151.432C91.478 151.827 91.3767 152.275 91.3767 152.776C91.3767 153.277 91.478 153.725 91.6807 154.12C91.8833 154.515 92.166 154.829 92.5287 155.064C92.902 155.299 93.318 155.416 93.7767 155.416Z" fill="#9393AA"/>
<path d="M99.233 157V148.568H101.169L101.201 150.264L100.881 150.392C100.977 150.115 101.121 149.859 101.313 149.624C101.505 149.379 101.734 149.171 102.001 149C102.268 148.819 102.55 148.68 102.849 148.584C103.148 148.477 103.452 148.424 103.761 148.424C104.22 148.424 104.625 148.499 104.977 148.648C105.34 148.787 105.638 149.011 105.873 149.32C106.118 149.629 106.3 150.024 106.417 150.504L106.113 150.44L106.241 150.184C106.358 149.928 106.524 149.699 106.737 149.496C106.95 149.283 107.19 149.096 107.457 148.936C107.724 148.765 108.001 148.637 108.289 148.552C108.588 148.467 108.881 148.424 109.169 148.424C109.809 148.424 110.342 148.552 110.769 148.808C111.196 149.064 111.516 149.453 111.729 149.976C111.942 150.499 112.049 151.144 112.049 151.912V157H110.065V152.04C110.065 151.613 110.006 151.261 109.889 150.984C109.782 150.707 109.612 150.504 109.377 150.376C109.153 150.237 108.87 150.168 108.529 150.168C108.262 150.168 108.006 150.216 107.761 150.312C107.526 150.397 107.324 150.525 107.153 150.696C106.982 150.856 106.849 151.043 106.753 151.256C106.657 151.469 106.609 151.704 106.609 151.96V157H104.625V152.024C104.625 151.619 104.566 151.283 104.449 151.016C104.332 150.739 104.161 150.531 103.937 150.392C103.713 150.243 103.441 150.168 103.121 150.168C102.854 150.168 102.604 150.216 102.369 150.312C102.134 150.397 101.932 150.52 101.761 150.68C101.59 150.84 101.457 151.027 101.361 151.24C101.265 151.453 101.217 151.688 101.217 151.944V157H99.233Z" fill="#9393AA"/>
<path d="M118.569 157V146.424H120.537V157H118.569ZM116.905 150.392V148.568H122.377V150.392H116.905Z" fill="#9393AA"/>
<path d="M127.014 157.16C126.171 157.16 125.419 156.973 124.758 156.6C124.096 156.216 123.574 155.693 123.19 155.032C122.806 154.371 122.614 153.619 122.614 152.776C122.614 151.933 122.806 151.181 123.19 150.52C123.574 149.859 124.096 149.341 124.758 148.968C125.419 148.584 126.171 148.392 127.014 148.392C127.846 148.392 128.592 148.584 129.254 148.968C129.915 149.341 130.432 149.859 130.806 150.52C131.19 151.181 131.382 151.933 131.382 152.776C131.382 153.619 131.19 154.371 130.806 155.032C130.432 155.693 129.915 156.216 129.254 156.6C128.592 156.973 127.846 157.16 127.014 157.16ZM127.014 155.416C127.472 155.416 127.878 155.299 128.23 155.064C128.592 154.829 128.875 154.515 129.078 154.12C129.291 153.725 129.392 153.277 129.382 152.776C129.392 152.264 129.291 151.811 129.078 151.416C128.875 151.021 128.592 150.712 128.23 150.488C127.878 150.253 127.472 150.136 127.014 150.136C126.555 150.136 126.139 150.253 125.766 150.488C125.403 150.712 125.12 151.027 124.918 151.432C124.715 151.827 124.614 152.275 124.614 152.776C124.614 153.277 124.715 153.725 124.918 154.12C125.12 154.515 125.403 154.829 125.766 155.064C126.139 155.299 126.555 155.416 127.014 155.416Z" fill="#9393AA"/>
<path d="M137.477 157V146.424H139.445V157H137.477ZM135.813 150.392V148.568H141.285V150.392H135.813Z" fill="#9393AA"/>
<path d="M142.144 157V148.568H144.08L144.112 151.256L143.84 150.648C143.957 150.221 144.16 149.837 144.448 149.496C144.736 149.155 145.066 148.888 145.44 148.696C145.824 148.493 146.224 148.392 146.64 148.392C146.821 148.392 146.992 148.408 147.152 148.44C147.322 148.472 147.461 148.509 147.568 148.552L147.04 150.712C146.922 150.648 146.778 150.595 146.608 150.552C146.437 150.509 146.266 150.488 146.096 150.488C145.829 150.488 145.573 150.541 145.328 150.648C145.093 150.744 144.885 150.883 144.704 151.064C144.522 151.245 144.378 151.459 144.272 151.704C144.176 151.939 144.128 152.205 144.128 152.504V157H142.144Z" fill="#9393AA"/>
<path d="M151.063 157.16C150.369 157.16 149.74 156.968 149.175 156.584C148.609 156.2 148.156 155.677 147.815 155.016C147.473 154.355 147.303 153.603 147.303 152.76C147.303 151.917 147.473 151.165 147.815 150.504C148.156 149.843 148.62 149.325 149.207 148.952C149.793 148.579 150.455 148.392 151.191 148.392C151.617 148.392 152.007 148.456 152.359 148.584C152.711 148.701 153.02 148.872 153.287 149.096C153.553 149.32 153.772 149.576 153.943 149.864C154.124 150.152 154.247 150.461 154.311 150.792L153.879 150.68V148.568H155.863V157H153.863V154.984L154.327 154.904C154.252 155.192 154.113 155.475 153.911 155.752C153.719 156.019 153.473 156.259 153.175 156.472C152.887 156.675 152.561 156.84 152.199 156.968C151.847 157.096 151.468 157.16 151.063 157.16ZM151.607 155.416C152.065 155.416 152.471 155.304 152.823 155.08C153.175 154.856 153.447 154.547 153.639 154.152C153.841 153.747 153.943 153.283 153.943 152.76C153.943 152.248 153.841 151.795 153.639 151.4C153.447 151.005 153.175 150.696 152.823 150.472C152.471 150.248 152.065 150.136 151.607 150.136C151.148 150.136 150.743 150.248 150.391 150.472C150.049 150.696 149.783 151.005 149.591 151.4C149.399 151.795 149.303 152.248 149.303 152.76C149.303 153.283 149.399 153.747 149.591 154.152C149.783 154.547 150.049 154.856 150.391 155.08C150.743 155.304 151.148 155.416 151.607 155.416Z" fill="#9393AA"/>
<path d="M160.021 157L156.469 148.568H158.613L161.013 154.872L160.597 154.984L163.125 148.568H165.221L161.493 157H160.021Z" fill="#9393AA"/>
<path d="M169.738 157.16C168.853 157.16 168.069 156.973 167.386 156.6C166.714 156.227 166.186 155.72 165.802 155.08C165.429 154.429 165.242 153.688 165.242 152.856C165.242 152.195 165.349 151.592 165.562 151.048C165.776 150.504 166.069 150.035 166.442 149.64C166.826 149.235 167.28 148.925 167.802 148.712C168.336 148.488 168.917 148.376 169.546 148.376C170.101 148.376 170.618 148.483 171.098 148.696C171.578 148.909 171.994 149.203 172.346 149.576C172.698 149.939 172.965 150.376 173.146 150.888C173.338 151.389 173.429 151.939 173.418 152.536L173.402 153.224H166.57L166.202 151.88H171.754L171.498 152.152V151.8C171.466 151.469 171.36 151.181 171.178 150.936C170.997 150.68 170.762 150.483 170.474 150.344C170.197 150.195 169.888 150.12 169.546 150.12C169.024 150.12 168.581 150.221 168.218 150.424C167.866 150.627 167.6 150.92 167.418 151.304C167.237 151.677 167.146 152.147 167.146 152.712C167.146 153.256 167.258 153.731 167.482 154.136C167.717 154.541 168.042 154.856 168.458 155.08C168.885 155.293 169.381 155.4 169.946 155.4C170.341 155.4 170.704 155.336 171.034 155.208C171.365 155.08 171.722 154.851 172.106 154.52L173.082 155.88C172.794 156.147 172.464 156.376 172.09 156.568C171.728 156.749 171.344 156.893 170.938 157C170.533 157.107 170.133 157.16 169.738 157.16Z" fill="#9393AA"/>
<path d="M174.537 157V145.16H176.521V157H174.537Z" fill="#9393AA"/>
<path d="M178.946 157.176C178.562 157.176 178.263 157.064 178.05 156.84C177.847 156.616 177.746 156.301 177.746 155.896C177.746 155.523 177.852 155.219 178.066 154.984C178.29 154.739 178.583 154.616 178.946 154.616C179.33 154.616 179.623 154.728 179.826 154.952C180.039 155.165 180.146 155.48 180.146 155.896C180.146 156.269 180.034 156.579 179.81 156.824C179.596 157.059 179.308 157.176 178.946 157.176Z" fill="#9393AA"/>
<defs>
<filter id="filter0_d_6706_27990" x="83.1851" y="13.5676" width="52.0115" height="46.478" filterUnits="userSpaceOnUse" color-interpolation-filters="sRGB">
<feFlood flood-opacity="0" result="BackgroundImageFix"/>
<feColorMatrix in="SourceAlpha" type="matrix" values="0 0 0 0 0 0 0 0 0 0 0 0 0 0 0 0 0 0 127 0" result="hardAlpha"/>
<feOffset dx="-3" dy="3"/>
<feGaussianBlur stdDeviation="2.5"/>
<feComposite in2="hardAlpha" operator="out"/>
<feColorMatrix type="matrix" values="0 0 0 0 0.0136111 0 0 0 0 0.453056 0 0 0 0 0.369525 0 0 0 0.3 0"/>
<feBlend mode="normal" in2="BackgroundImageFix" result="effect1_dropShadow_6706_27990"/>
<feBlend mode="normal" in="SourceGraphic" in2="effect1_dropShadow_6706_27990" result="shape"/>
</filter>
<linearGradient id="paint0_linear_6706_27990" x1="148" y1="0" x2="67.2506" y2="16.1057" gradientUnits="userSpaceOnUse">
<stop stop-color="#00D7A3"/>
<stop offset="1" stop-color="#00C5AD"/>
</linearGradient>
</defs>
</svg>
