<svg width="26" height="26" viewBox="0 0 26 26" fill="none" xmlns="http://www.w3.org/2000/svg">
<path d="M13 23C18.5228 23 23 18.5228 23 13C23 7.47714 18.5228 3 13 3C7.47714 3 3 7.47714 3 13C3 18.5228 7.47714 23 13 23Z" stroke="#2E2E51" stroke-width="1.5" stroke-linecap="round" stroke-linejoin="round"/>
<path d="M12.9996 14.1206C15.0715 14.1206 16.7511 12.441 16.7511 10.3691C16.7511 8.29717 15.0715 6.61755 12.9996 6.61755C10.9277 6.61755 9.24805 8.29717 9.24805 10.3691C9.24805 12.441 10.9277 14.1206 12.9996 14.1206Z" stroke="#2E2E51" stroke-width="1.5" stroke-linecap="round" stroke-linejoin="round"/>
<path d="M5.89844 20.0525C6.44655 18.5056 7.92038 17.3972 9.66216 17.3972H16.3248C18.0665 17.3972 19.5404 18.5056 20.0885 20.0525" stroke="#2E2E51" stroke-width="1.5" stroke-linecap="round" stroke-linejoin="round"/>
</svg>
