<svg width="26" height="26" viewBox="0 0 26 26" fill="none" xmlns="http://www.w3.org/2000/svg">
<path d="M8.20007 10.6V5H17.8001V10.6" stroke="#2E2E51" stroke-width="1.5" stroke-linecap="round" stroke-linejoin="round"/>
<path d="M8.2 17.7996H6.6C6.17565 17.7996 5.76869 17.631 5.46863 17.331C5.16857 17.0309 5 16.624 5 16.1996V12.1996C5 11.7753 5.16857 11.3683 5.46863 11.0682C5.76869 10.7682 6.17565 10.5996 6.6 10.5996H19.4C19.8243 10.5996 20.2313 10.7682 20.5314 11.0682C20.8314 11.3683 21 11.7753 21 12.1996V16.1996C21 16.624 20.8314 17.0309 20.5314 17.331C20.2313 17.631 19.8243 17.7996 19.4 17.7996H17.8" stroke="#2E2E51" stroke-width="1.5" stroke-linecap="round" stroke-linejoin="round"/>
<path d="M17.8001 14.5996H8.20007V20.9996H17.8001V14.5996Z" stroke="#2E2E51" stroke-width="1.5" stroke-linecap="round" stroke-linejoin="round"/>
</svg>
