<svg width="26" height="26" viewBox="0 0 26 26" fill="none" xmlns="http://www.w3.org/2000/svg">
<path d="M7.29875 12.3535L6 10.8466L7.68736 8.12803L9.62016 8.59638L10.786 7.89383L11.3996 6H14.6004L15.214 7.89383L16.3798 8.59638L18.3229 8.12803L20 10.8466L18.7012 12.3535V13.8095L20 15.3164L18.3229 18.0349L16.3798 17.5666L15.214 18.1062L14.6004 20H11.3996L10.786 18.1062L9.62016 17.5666L7.68736 18.0349L6 15.3164L7.29875 13.8095V12.3535Z" stroke="#2E2E51" stroke-width="1.5" stroke-linecap="round" stroke-linejoin="round"/>
<path d="M13.0052 15.5911C14.4398 15.5911 15.6027 14.4332 15.6027 13.0049C15.6027 11.5766 14.4398 10.4187 13.0052 10.4187C11.5707 10.4187 10.4077 11.5766 10.4077 13.0049C10.4077 14.4332 11.5707 15.5911 13.0052 15.5911Z" stroke="#2E2E51" stroke-width="1.5" stroke-linecap="round" stroke-linejoin="round"/>
</svg>
