<svg width="26" height="26" viewBox="0 0 26 26" fill="none" xmlns="http://www.w3.org/2000/svg">
<path d="M13.0079 5.12402C17.5657 5.12402 21.25 8.57356 21.25 12.8078V19.5884C21.25 22.0164 19.1379 24.0002 16.5176 24.0002H9.48244C6.87801 24.0002 4.75 22.0312 4.75 19.5884V12.8078C4.75 8.55876 8.4502 5.12402 12.9921 5.12402H13.0079Z" stroke="#9393AA" stroke-width="1.5" stroke-linecap="round" stroke-linejoin="round"/>
<path d="M9.51413 5.84927C9.48237 5.67161 9.46649 5.49396 9.46649 5.3015C9.46649 3.4805 11.0546 2 13.0079 2C14.9612 2 16.5493 3.4805 16.5493 5.3015C16.5493 5.47916 16.5493 5.65684 16.5016 5.8345" stroke="#9393AA" stroke-width="1.5" stroke-linecap="round" stroke-linejoin="round"/>
<path d="M14.8818 9.26904H11.134C10.213 9.26904 9.46649 9.96505 9.46649 10.8236V10.8384C9.46649 11.6969 10.213 12.3929 11.134 12.3929H14.8818C15.8027 12.3929 16.5493 11.6969 16.5493 10.8384V10.8236C16.5493 9.96505 15.8027 9.26904 14.8818 9.26904Z" stroke="#9393AA" stroke-width="1.5" stroke-linecap="round" stroke-linejoin="round"/>
<path d="M4.75 16.6567H21.25" stroke="#9393AA" stroke-width="1.5" stroke-linecap="round" stroke-linejoin="round"/>
<path d="M8.92657 16.6567V19.8101" stroke="#9393AA" stroke-width="1.5" stroke-linecap="round" stroke-linejoin="round"/>
</svg>
