<svg width="25" height="25" viewBox="0 0 25 25" fill="none" xmlns="http://www.w3.org/2000/svg">
<path opacity="0.25" d="M10.5979 2.3541C11.1966 0.511475 13.8034 0.51148 14.4021 2.3541L15.98 7.21024C16.2477 8.03428 17.0156 8.5922 17.8821 8.5922L22.9881 8.5922C24.9256 8.5922 25.7311 11.0714 24.1637 12.2102L20.0328 15.2115C19.3318 15.7208 19.0385 16.6235 19.3063 17.4476L20.8841 22.3037C21.4828 24.1463 19.3739 25.6786 17.8064 24.5398L13.6756 21.5385C12.9746 21.0292 12.0254 21.0292 11.3244 21.5385L7.19355 24.5398C5.62612 25.6786 3.51717 24.1463 4.11587 22.3037L5.69373 17.4476C5.96147 16.6235 5.66816 15.7208 4.96718 15.2115L0.836303 12.2102C-0.731125 11.0714 0.0744302 8.5922 2.01188 8.5922L7.11792 8.5922C7.98437 8.5922 8.75228 8.03428 9.02003 7.21024L10.5979 2.3541Z" fill="#9393AA"/>
</svg>
