<svg width="18" height="18" viewBox="0 0 18 18" fill="none" xmlns="http://www.w3.org/2000/svg">
<path d="M7.88124 2.14681C8.23338 1.06304 9.76662 1.06304 10.1188 2.14681L11.2009 5.4772C11.3584 5.96187 11.81 6.29003 12.3196 6.29003H15.8214C16.961 6.29003 17.4348 7.74823 16.5128 8.41804L13.6798 10.4763C13.2676 10.7759 13.095 11.3068 13.2525 11.7915L14.3346 15.1219C14.6868 16.2057 13.4463 17.1069 12.5244 16.4371L9.69143 14.3788C9.27914 14.0792 8.72086 14.0792 8.30857 14.3788L5.47557 16.4371C4.55366 17.1069 3.31324 16.2057 3.66537 15.1219L4.74748 11.7915C4.90496 11.3068 4.73244 10.7759 4.32015 10.4763L1.48716 8.41804C0.565246 7.74823 1.03905 6.29003 2.17859 6.29003H5.68036C6.18998 6.29003 6.64165 5.96187 6.79913 5.4772L7.88124 2.14681Z" stroke="#2E2E51" stroke-width="1.5"/>
</svg>
