<svg width="26" height="26" viewBox="0 0 26 26" fill="none" xmlns="http://www.w3.org/2000/svg">
<path d="M20 13.6306C19.8774 14.9574 19.3795 16.2218 18.5645 17.2759C17.7495 18.33 16.6512 19.1301 15.398 19.5828C14.1448 20.0354 12.7887 20.1218 11.4882 19.8319C10.1878 19.5419 8.99677 18.8875 8.05461 17.9454C7.11246 17.0032 6.45811 15.8122 6.16814 14.5118C5.87817 13.2113 5.96456 11.8552 6.41721 10.602C6.86986 9.34883 7.67005 8.2505 8.72413 7.43552C9.77822 6.62054 11.0426 6.12261 12.3694 6C11.5926 7.05088 11.2188 8.34566 11.316 9.64884C11.4132 10.952 11.9749 12.177 12.8989 13.1011C13.823 14.0251 15.048 14.5868 16.3512 14.684C17.6543 14.7812 18.9491 14.4074 20 13.6306Z" stroke="#2E2E51" stroke-width="1.5" stroke-linecap="round" stroke-linejoin="round"/>
</svg>
