<svg width="26" height="26" viewBox="0 0 26 26" fill="none" xmlns="http://www.w3.org/2000/svg">
<path d="M19.9996 16.4817V18.5893C20.0004 18.7849 19.9602 18.9786 19.8817 19.1578C19.8031 19.3371 19.6879 19.498 19.5435 19.6303C19.399 19.7626 19.2285 19.8633 19.0428 19.9259C18.8571 19.9886 18.6603 20.0119 18.465 19.9943C16.299 19.7594 14.2183 19.0207 12.3902 17.8376C10.6895 16.7589 9.24748 15.3198 8.16674 13.6224C6.9771 11.7897 6.23677 9.70306 6.00571 7.53156C5.98812 7.33729 6.01126 7.1415 6.07364 6.95664C6.13603 6.77178 6.2363 6.60191 6.36807 6.45785C6.49984 6.31378 6.66022 6.19868 6.839 6.11986C7.01779 6.04105 7.21106 6.00025 7.40651 6.00007H9.51826C9.85987 5.99671 10.1911 6.11744 10.4501 6.33976C10.7091 6.56208 10.8783 6.87081 10.9261 7.20841C11.0152 7.88287 11.1805 8.54511 11.4188 9.18249C11.5135 9.43394 11.534 9.70721 11.4779 9.96993C11.4218 10.2327 11.2913 10.4738 11.1021 10.6648L10.2081 11.557C11.2102 13.3158 12.6693 14.7721 14.4316 15.7721L15.3256 14.8799C15.517 14.6911 15.7586 14.5609 16.0218 14.5049C16.2851 14.4488 16.5589 14.4693 16.8108 14.5638C17.4495 14.8016 18.113 14.9666 18.7888 15.0556C19.1308 15.1037 19.4431 15.2756 19.6663 15.5386C19.8895 15.8015 20.0081 16.1372 19.9996 16.4817Z" stroke="#2E2E51" stroke-width="1.5" stroke-linecap="round" stroke-linejoin="round"/>
</svg>
