<svg width="20" height="20" viewBox="0 0 20 20" fill="none" xmlns="http://www.w3.org/2000/svg">
<path d="M8.88124 3.14633C9.23338 2.06255 10.7666 2.06255 11.1188 3.14633L12.2009 6.47671C12.3584 6.96139 12.81 7.28954 13.3196 7.28954H16.8214C17.961 7.28954 18.4348 8.74775 17.5128 9.41755L14.6798 11.4758C14.2676 11.7754 14.095 12.3064 14.2525 12.791L15.3346 16.1214C15.6868 17.2052 14.4463 18.1064 13.5244 17.4366L10.6914 15.3783C10.2791 15.0788 9.72086 15.0788 9.30857 15.3783L6.47557 17.4366C5.55366 18.1064 4.31324 17.2052 4.66537 16.1214L5.74748 12.791C5.90496 12.3064 5.73244 11.7754 5.32015 11.4758L2.48716 9.41755C1.56525 8.74775 2.03905 7.28954 3.17859 7.28954H6.68036C7.18998 7.28954 7.64165 6.96139 7.79913 6.47671L8.88124 3.14633Z" fill="#FFC700"/>
</svg>
